#N canvas 298 304 450 300 10;
#X msg 32 12 0;
#X msg 62 13 16;
#X msg 98 12 32;
#X msg 135 9 48;
#X obj 281 39 preset;
#X obj 97 53 lp_column 1 0 16 32 48 64 80 96;
#X msg 175 11 64;
#X msg 217 10 80;
#X msg 250 7 96;
#X connect 0 0 5 0;
#X connect 1 0 5 0;
#X connect 2 0 5 0;
#X connect 3 0 5 0;
#X connect 6 0 5 0;
#X connect 7 0 5 0;
#X connect 8 0 5 0;
