#N canvas 100 206 450 300 10;
#X obj 97 53 lp_column 1;
#X msg 32 12 0;
#X msg 62 13 16;
#X msg 98 12 32;
#X msg 135 9 48;
#X connect 1 0 0 0;
#X connect 2 0 0 0;
#X connect 3 0 0 0;
#X connect 4 0 0 0;
