#N canvas 140 138 1030 537 10;
#X floatatom 100 100 5 0 0 0 - r-col#1-cell1 s-col#1-cell1;
#X floatatom 100 125 5 0 0 0 - r-col#1-cell2 s-col#1-cell2;
#X floatatom 100 150 5 0 0 0 - r-col#1-cell3 s-col#1-cell3;
#X floatatom 100 175 5 0 0 0 - r-col#1-cell4 s-col#1-cell4;
#X obj -598 26 inlet;
#N canvas 465 447 450 300 cents_to_pb 0;
#X obj 133 50 inlet;
#X obj 133 184 outlet;
#X obj 133 92 * 127;
#X obj 133 136 / 200;
#X connect 0 0 2 0;
#X connect 2 0 3 0;
#X connect 3 0 1 0;
#X restore -580 317 pd cents_to_pb;
#X obj -765 150 bng 15 250 50 0 empty empty empty 17 7 0 10 -262144
-1 -1;
#X obj -661 150 bng 15 250 50 0 empty empty empty 17 7 0 10 -262144
-1 -1;
#X obj -527 150 bng 15 250 50 0 empty empty empty 17 7 0 10 -262144
-1 -1;
#X obj -428 150 bng 15 250 50 0 empty empty empty 17 7 0 10 -262144
-1 -1;
#X floatatom -520 370 5 0 0 0 - - -;
#X floatatom -386 359 5 0 0 0 - - -;
#X obj -775 113 simple_gate 0;
#X obj -661 113 simple_gate 16;
#X msg -626 349 0;
#X obj -527 106 simple_gate 32;
#X obj -430 106 simple_gate 48;
#N canvas 492 283 450 300 pipe 0;
#X obj 161 48 inlet;
#X obj 161 147 outlet;
#X connect 0 0 1 0;
#X restore -598 68 pd pipe;
#X obj -688 313 r reset-pb;
#X obj -775 198 s r-col\$1-cell1;
#X obj -775 224 r s-col\$1-cell1;
#X obj -661 198 s r-col\$1-cell2;
#X obj -661 224 r s-col\$1-cell2;
#X obj -537 198 s r-col\$1-cell3;
#X obj -537 224 r s-col\$1-cell3;
#X obj -399 169 s reset-pb;
#X obj -428 198 s r-col\$1-cell4;
#X obj -428 224 r s-col\$1-cell4;
#X connect 4 0 17 0;
#X connect 5 0 10 0;
#X connect 6 0 19 0;
#X connect 6 0 26 0;
#X connect 7 0 21 0;
#X connect 7 0 26 0;
#X connect 8 0 23 0;
#X connect 8 0 26 0;
#X connect 9 0 25 0;
#X connect 9 0 26 0;
#X connect 12 0 6 0;
#X connect 13 0 7 0;
#X connect 14 0 10 0;
#X connect 15 0 8 0;
#X connect 16 0 9 0;
#X connect 17 0 12 0;
#X connect 17 0 13 0;
#X connect 17 0 15 0;
#X connect 17 0 16 0;
#X connect 18 0 14 0;
#X connect 20 0 5 0;
#X connect 22 0 5 0;
#X connect 24 0 5 0;
#X connect 27 0 11 0;
#X coords 0 -1 1 1 85 200 2 100 100;
