#N canvas 303 158 680 537 10;
#X floatatom 100 100 5 0 0 0 - - -;
#X floatatom 100 121 5 0 0 0 - - -;
#X floatatom 100 141 5 0 0 0 - - -;
#X floatatom 102 161 5 0 0 0 - - -;
#X obj -131 17 inlet;
#N canvas 465 447 450 300 cents_to_pb 0;
#X obj 133 50 inlet;
#X obj 133 184 outlet;
#X obj 133 92 * 127;
#X obj 133 136 / 200;
#X connect 0 0 2 0;
#X connect 2 0 3 0;
#X connect 3 0 1 0;
#X restore 237 127 pd cents_to_pb;
#X obj -13 101 bng 15 250 50 0 empty empty empty 17 7 0 10 -262144
-1 -1;
#X obj -14 137 bng 15 250 50 0 empty empty empty 17 7 0 10 -262144
-1 -1;
#X obj -17 167 bng 15 250 50 0 empty empty empty 17 7 0 10 -262144
-1 -1;
#X obj -15 203 bng 15 250 50 0 empty empty empty 17 7 0 10 -262144
-1 -1;
#X floatatom 297 180 5 0 0 0 - - -;
#X floatatom 228 192 5 0 0 0 - - -;
#X obj -144 82 simple_gate 0;
#X obj -144 113 simple_gate 16;
#X msg -264 27 0;
#X msg -260 50 16;
#X msg 220 161 0;
#X obj -149 155 simple_gate 32;
#X obj -148 177 simple_gate 48;
#X msg -258 70 32;
#X msg -258 89 48;
#N canvas 492 283 450 300 pipe 0;
#X obj 161 48 inlet;
#X obj 161 147 outlet;
#X connect 0 0 1 0;
#X restore -290 123 pd pipe;
#X obj 16 18 nbx 5 14 -1e+037 1e+037 0 0 empty empty empty 0 -8 0 10
-262144 -1 -1 0 256;
#X obj 96 52 nbx 5 14 -1e+037 1e+037 0 0 empty empty empty 0 -8 0 10
-262144 -1 -1 0 256;
#X connect 0 0 5 0;
#X connect 1 0 5 0;
#X connect 2 0 5 0;
#X connect 3 0 11 0;
#X connect 4 0 12 0;
#X connect 5 0 10 0;
#X connect 6 0 3 0;
#X connect 6 0 0 0;
#X connect 7 0 3 0;
#X connect 7 0 1 0;
#X connect 8 0 2 0;
#X connect 8 0 3 0;
#X connect 9 0 3 0;
#X connect 9 0 16 0;
#X connect 12 0 6 0;
#X connect 13 0 7 0;
#X connect 14 0 21 0;
#X connect 15 0 21 0;
#X connect 16 0 10 0;
#X connect 17 0 8 0;
#X connect 18 0 9 0;
#X connect 19 0 21 0;
#X connect 20 0 21 0;
#X connect 21 0 12 0;
#X connect 21 0 13 0;
#X connect 21 0 17 0;
#X connect 21 0 18 0;
#X coords 0 -1 1 1 85 200 2 100 100;
