#N canvas 448 195 591 396 10;
#X obj 57 296 outlet;
#X obj 102 120 moses 24;
#X obj 102 296 outlet;
#X obj 57 97 moses 8;
#X obj 147 142 moses 40;
#X obj 192 165 moses 56;
#X obj 237 188 moses 72;
#X obj 282 212 moses 88;
#X obj 327 236 moses 104;
#X obj 378 260 moses 120;
#X obj 147 296 outlet;
#X obj 192 296 outlet;
#X obj 237 296 outlet;
#X obj 282 296 outlet;
#X obj 327 296 outlet;
#X obj 378 296 outlet;
#X obj 57 56 inlet;
#X text 218 21 Takes midi notes in the top and sorts them into rows
based on the launchpad's XY configuration.;
#X connect 1 0 2 0;
#X connect 1 1 4 0;
#X connect 3 0 0 0;
#X connect 3 1 1 0;
#X connect 4 0 10 0;
#X connect 4 1 5 0;
#X connect 5 0 11 0;
#X connect 5 1 6 0;
#X connect 6 0 12 0;
#X connect 6 1 7 0;
#X connect 7 0 13 0;
#X connect 7 1 8 0;
#X connect 8 0 14 0;
#X connect 8 1 9 0;
#X connect 9 0 15 0;
#X connect 16 0 3 0;
