#N canvas 303 257 450 300 10;
#X obj 144 20 inlet;
#X obj 152 120 s r-col\$1-cell4;
#X obj 224 48 r s-col\$1-cell4;
#X obj 149 85 +;
#X msg 121 43 -12;
#X connect 0 0 4 0;
#X connect 2 0 3 1;
#X connect 3 0 1 0;
#X connect 4 0 3 0;
