#N canvas 592 460 450 300 10;
#X obj 151 30 inlet;
#X obj 240 106 +;
#X obj 240 135 s r-col\$1-cell4;
#X obj 340 44 r s-col\$1-cell4;
#X msg 163 72 12;
#X obj 233 30 inlet;
#X msg 232 73 -12;
#X connect 0 0 4 0;
#X connect 1 0 2 0;
#X connect 3 0 1 1;
#X connect 4 0 1 0;
#X connect 5 0 6 0;
#X connect 6 0 1 0;
