#N canvas 638 222 448 298 10;
#X obj 131 25 inlet;
#X obj 134 232 s output\$1;
#X msg 131 67 0;
#N canvas 250 282 450 300 thru 0;
#X obj 171 68 inlet;
#X obj 203 173 outlet;
#X connect 0 0 1 0;
#X restore 135 180 pd thru;
#X msg 196 150 1;
#X obj 215 212 print output;
#X obj 170 91 t b;
#X obj 170 121 delay 2000;
#X connect 0 0 2 0;
#X connect 2 0 3 0;
#X connect 2 0 6 0;
#X connect 3 0 1 0;
#X connect 3 0 5 0;
#X connect 4 0 3 0;
#X connect 6 0 7 0;
#X connect 7 0 4 0;
