#N canvas 580 130 441 348 10;
#X obj 166 28 inlet;
#X obj 166 80 unpack f f f f f f f;
#X obj 166 135 s r-col\$1-cell1;
#X obj 185 158 s r-col\$1-cell2;
#X obj 205 180 s r-col\$1-cell3;
#X obj 224 202 s r-col\$1-cell4;
#X obj 245 226 s r-col\$1-cell5;
#X obj 263 246 s r-col\$1-cell6;
#X obj 283 265 s r-col\$1-cell7;
#X connect 0 0 1 0;
#X connect 1 0 2 0;
#X connect 1 1 3 0;
#X connect 1 2 4 0;
#X connect 1 3 5 0;
#X connect 1 4 6 0;
#X connect 1 5 7 0;
#X connect 1 6 8 0;
