#N canvas 821 295 450 300 10;
#X obj 144 20 inlet;
#X obj 152 91 +;
#X obj 152 120 s r-col\$1-cell4;
#X obj 252 29 r s-col\$1-cell4;
#X msg 131 57 12;
#X connect 0 0 4 0;
#X connect 1 0 2 0;
#X connect 3 0 1 1;
#X connect 4 0 1 0;
