#N canvas 363 204 606 348 10;
#X obj 118 16 inlet;
#X obj 118 68 unpack f f f f f f f;
#X obj 118 123 s r-col\$1-cell1;
#X obj 137 146 s r-col\$1-cell2;
#X obj 157 168 s r-col\$1-cell3;
#X obj 176 190 s r-col\$1-cell4;
#X obj 28 88 s output\$1;
#X msg 28 51 0;
#X obj -3 123 delay 500;
#X msg -16 176 1;
#X obj -21 206 s output\$1;
#X obj 211 214 s r-col\$1-cell5;
#X obj 233 234 s r-col\$1-cell6;
#X obj 249 253 s r-col\$1-cell7;
#X connect 0 0 1 0;
#X connect 0 0 7 0;
#X connect 1 0 2 0;
#X connect 1 1 3 0;
#X connect 1 2 4 0;
#X connect 1 3 5 0;
#X connect 1 4 11 0;
#X connect 1 5 12 0;
#X connect 1 6 13 0;
#X connect 7 0 6 0;
#X connect 7 0 8 0;
#X connect 8 0 9 0;
#X connect 9 0 10 0;
